<svg id="Layer_1" data-name="Layer 1" xmlns="http://www.w3.org/2000/svg" xmlns:xlink="http://www.w3.org/1999/xlink" width="162" height="186.99" viewBox="0 0 162 186.99"><defs><linearGradient id="linear-gradient" x1="228.92" y1="343.89" x2="301.13" y2="518.53" gradientTransform="matrix(1, 0, 0, -1, 0, 842.11)" gradientUnits="userSpaceOnUse"><stop offset="0" stop-color="gray" stop-opacity="0.25"/><stop offset="0.54" stop-color="gray" stop-opacity="0.12"/><stop offset="1" stop-color="gray" stop-opacity="0.1"/></linearGradient><linearGradient id="linear-gradient-2" x1="-49008.01" y1="-66691.8" x2="18642.19" y2="25332.49" xlink:href="#linear-gradient"/><linearGradient id="linear-gradient-3" x1="321.96" y1="-16849.09" x2="321.96" y2="-10780.09" xlink:href="#linear-gradient"/></defs><g style="opacity:0.5"><path d="M309,327.14l-88.38.21a3.7,3.7,0,0,0-2.57,1,3.55,3.55,0,0,0-1.06,2.53l.4,160.17a3.56,3.56,0,0,0,.28,1.36,3.85,3.85,0,0,0,.79,1.16,3.7,3.7,0,0,0,1.18.77,3.75,3.75,0,0,0,1.4.27l88.38-.21a3.66,3.66,0,0,0,2.56-1.06,3.54,3.54,0,0,0,1.06-2.52l-.41-160.17a3.55,3.55,0,0,0-1.07-2.52A3.68,3.68,0,0,0,309,327.14Z" transform="translate(-217 -327.01)" style="opacity:0.5;isolation:isolate;fill:url(#linear-gradient)"/><path d="M308,327l-86.4.2a3.3,3.3,0,0,0-3.32,3.28l.39,158.61a3.31,3.31,0,0,0,3.34,3.26l86.41-.21a3.29,3.29,0,0,0,3.31-3.28l-.39-158.6A3.29,3.29,0,0,0,308,327Z" transform="translate(-217 -327.01)" style="fill:#dfdede;opacity:0.5;isolation:isolate"/><path d="M309.13,372.77,309,334.63a3.45,3.45,0,0,0-1-2.45,3.6,3.6,0,0,0-2.5-1l-17.29,0a7.36,7.36,0,0,1-2.52,4.51,7.62,7.62,0,0,1-4.9,1.81l-32.14.08a7.63,7.63,0,0,1-4.91-1.79,7.34,7.34,0,0,1-2.54-4.5l-17,0a3.57,3.57,0,0,0-2.5,1,3.48,3.48,0,0,0-1,2.46l.1,38.46L221,484.76a3.46,3.46,0,0,0,1.05,2.45,3.59,3.59,0,0,0,2.5,1l81.33-.2a3.56,3.56,0,0,0,2.49-1,3.44,3.44,0,0,0,1-2.45Z" transform="translate(-217 -327.01)" style="fill:#331312;opacity:0.5;isolation:isolate"/><path d="M273.87,333.09l-19.76.29a.48.48,0,0,0-.48.49v.31a.49.49,0,0,0,.5.48l19.76-.3a.49.49,0,0,0,.48-.48v-.32A.48.48,0,0,0,273.87,333.09Z" transform="translate(-217 -327.01)" style="fill:#dcdbdb;opacity:0.5;isolation:isolate"/><path d="M278.78,334.29a.77.77,0,0,0,.77-.77.78.78,0,0,0-1.56,0A.77.77,0,0,0,278.78,334.29Z" transform="translate(-217 -327.01)" style="fill:#dcdbdb;opacity:0.5;isolation:isolate"/><path d="M300.85,351.84H257.53v3.4h43.32Z" transform="translate(-217 -327.01)" style="fill:#614124;opacity:0.5;isolation:isolate"/><path d="M300.85,358.63H257.53V362h43.32Z" transform="translate(-217 -327.01)" style="fill:#614124;opacity:0.5;isolation:isolate"/><path d="M236.05,363.62a8.09,8.09,0,1,0-8.18-8.09A8.14,8.14,0,0,0,236.05,363.62Z" transform="translate(-217 -327.01)" style="fill:#f5f5f5;opacity:0.5;isolation:isolate"/><path d="M239.58,361.19h-7.1a2.11,2.11,0,0,0-1.73.9,10.79,10.79,0,0,0,10.49.06,2.1,2.1,0,0,0-.71-.68A2.27,2.27,0,0,0,239.58,361.19Z" transform="translate(-217 -327.01)" style="fill:#614124;opacity:0.5;isolation:isolate"/><path d="M232.54,355.74s-1,3-1.61,2.7c0,0,5.48,4.64,10.31,0a14,14,0,0,0-2.08-2.7Z" transform="translate(-217 -327.01)" style="fill:#333;opacity:0.5;isolation:isolate"/><path d="M236.05,359.46a4,4,0,1,0-4.07-4A4,4,0,0,0,236.05,359.46Z" transform="translate(-217 -327.01)" style="fill:#333;opacity:0.5;isolation:isolate"/><path d="M234.62,359.8h2.84v1.09a1.24,1.24,0,0,1-.39.9,1.3,1.3,0,0,1-.92.38h-.24a1.3,1.3,0,0,1-.92-.38,1.23,1.23,0,0,1-.38-.9V359.8Z" transform="translate(-217 -327.01)" style="opacity:0.10000000149011612;isolation:isolate"/><path d="M234.92,359.74h2.24a.32.32,0,0,1,.21.08.29.29,0,0,1,.09.21v.8a1.27,1.27,0,0,1-.38.9,1.34,1.34,0,0,1-.92.38h-.25a1.3,1.3,0,0,1-.91-.38,1.23,1.23,0,0,1-.38-.9V360a.25.25,0,0,1,0-.12.28.28,0,0,1,.06-.09l.1-.07Z" transform="translate(-217 -327.01)" style="fill:#f8a47e;opacity:0.5;isolation:isolate"/><path d="M234.63,360.14a4.17,4.17,0,0,0,2.83,0v-.32h-2.83Z" transform="translate(-217 -327.01)" style="opacity:0.10000000149011612;isolation:isolate"/><path d="M236.05,360.33a4,4,0,1,0-4.07-4A4,4,0,0,0,236.05,360.33Z" transform="translate(-217 -327.01)" style="fill:#f8a47e;opacity:0.5;isolation:isolate"/><path d="M232.16,354.81h7.75s-.66-3.08-3.59-2.88A5.25,5.25,0,0,0,232.16,354.81Z" transform="translate(-217 -327.01)" style="fill:#333;opacity:0.5;isolation:isolate"/><path d="M232.07,356.86c.2,0,.37-.32.37-.7s-.17-.7-.37-.7-.38.31-.38.7S231.86,356.86,232.07,356.86Z" transform="translate(-217 -327.01)" style="fill:#f8a47e;opacity:0.5;isolation:isolate"/><path d="M240,356.86c.21,0,.38-.32.38-.7s-.17-.7-.38-.7-.38.31-.38.7S239.8,356.86,240,356.86Z" transform="translate(-217 -327.01)" style="fill:#f8a47e;opacity:0.5;isolation:isolate"/><path d="M232.16,354.92h7.75s-.66-3.08-3.59-2.88A5.25,5.25,0,0,0,232.16,354.92Z" transform="translate(-217 -327.01)" style="opacity:0.10000000149011612;isolation:isolate"/><path d="M300.85,377.71H257.53v3.4h43.32Z" transform="translate(-217 -327.01)" style="fill:#614124;opacity:0.5;isolation:isolate"/><path d="M300.85,384.5H257.53v3.4h43.32Z" transform="translate(-217 -327.01)" style="fill:#614124;opacity:0.5;isolation:isolate"/><path d="M236.05,389.49a8.09,8.09,0,1,0-8.18-8.09A8.14,8.14,0,0,0,236.05,389.49Z" transform="translate(-217 -327.01)" style="fill:#614124;opacity:0.5;isolation:isolate"/><path d="M300.85,403.58H257.53V407h43.32Z" transform="translate(-217 -327.01)" style="fill:#614124;opacity:0.5;isolation:isolate"/><path d="M300.85,410.38H257.53v3.39h43.32Z" transform="translate(-217 -327.01)" style="fill:#614124;opacity:0.5;isolation:isolate"/><path d="M236.05,415.36a8.09,8.09,0,1,0-8.18-8.08A8.14,8.14,0,0,0,236.05,415.36Z" transform="translate(-217 -327.01)" style="fill:#614124;opacity:0.5;isolation:isolate"/><path d="M300.85,429.45H257.53v3.4h43.32Z" transform="translate(-217 -327.01)" style="fill:#614124;opacity:0.5;isolation:isolate"/><path d="M300.85,436.25H257.53v3.39h43.32Z" transform="translate(-217 -327.01)" style="fill:#614124;opacity:0.5;isolation:isolate"/><path d="M236.05,441.23a8.08,8.08,0,1,0-8.18-8.08A8.14,8.14,0,0,0,236.05,441.23Z" transform="translate(-217 -327.01)" style="fill:#614124;opacity:0.5;isolation:isolate"/><path d="M300.85,455.33H257.53v3.39h43.32Z" transform="translate(-217 -327.01)" style="fill:#614124;opacity:0.5;isolation:isolate"/><path d="M300.85,462.12H257.53v3.4h43.32Z" transform="translate(-217 -327.01)" style="fill:#614124;opacity:0.5;isolation:isolate"/><path d="M236.05,467.1a8.08,8.08,0,1,0-8.18-8.08A8.14,8.14,0,0,0,236.05,467.1Z" transform="translate(-217 -327.01)" style="fill:#614124;opacity:0.5;isolation:isolate"/></g><path d="M365.89,347.26l-88.38.22a3.66,3.66,0,0,0-2.57,1,3.54,3.54,0,0,0-1.06,2.52l.41,159.39a3.38,3.38,0,0,0,.28,1.36,3.52,3.52,0,0,0,.79,1.16,3.7,3.7,0,0,0,1.18.77,3.66,3.66,0,0,0,1.39.27l88.38-.21a3.67,3.67,0,0,0,2.56-1.06,3.53,3.53,0,0,0,1.06-2.52l-.4-159.38a3.61,3.61,0,0,0-.28-1.37,3.48,3.48,0,0,0-.79-1.15,3.73,3.73,0,0,0-1.18-.78A3.86,3.86,0,0,0,365.89,347.26Z" transform="translate(-217 -327.01)" style="fill:url(#linear-gradient-2)"/><path d="M364.94,346.6l-86.41.2a3.31,3.31,0,0,0-3.32,3.28l.4,158.61a3.29,3.29,0,0,0,3.33,3.26l86.41-.21a3.3,3.3,0,0,0,3.32-3.28l-.4-158.6A3.28,3.28,0,0,0,364.94,346.6Z" transform="translate(-217 -327.01)" style="fill:#fff"/><path d="M366,392.37,365.92,354a3.45,3.45,0,0,0-1-2.45,3.57,3.57,0,0,0-2.5-1l-17.29,0a7.41,7.41,0,0,1-2.52,4.52,7.62,7.62,0,0,1-4.9,1.81l-32.14.08a7.63,7.63,0,0,1-4.91-1.79,7.37,7.37,0,0,1-2.54-4.5l-17,0a3.57,3.57,0,0,0-2.5,1,3.46,3.46,0,0,0-1,2.46l.1,38.46" transform="translate(-217 -327.01)" style="fill:#fafbfb"/><path d="M277.62,392.63l.27,111.46a3.46,3.46,0,0,0,1.05,2.45,3.52,3.52,0,0,0,2.5,1l81.32-.19a3.57,3.57,0,0,0,2.5-1,3.48,3.48,0,0,0,1-2.46L366,392.1" transform="translate(-217 -327.01)" style="fill:#fafbfb"/><path d="M302.71,366.47H285.44v17h17.27Z" transform="translate(-217 -327.01)" style="fill:#e0e0e0"/><g style="opacity:0.5"><path d="M379,397.57H264.91v38.16H379Z" transform="translate(-217 -327.01)" style="opacity:0.5;isolation:isolate;fill:url(#linear-gradient-3)"/></g><path d="M377.64,399.14H266.27v35.28H377.64Z" transform="translate(-217 -327.01)" style="fill:#fff"/><path d="M354,412.21H310.69v3.39H354Z" transform="translate(-217 -327.01)" style="fill:#614124"/><path d="M354,419H310.69v3.4H354Z" transform="translate(-217 -327.01)" style="fill:#614124"/><path d="M354,449.84H310.69v3.39H354Z" transform="translate(-217 -327.01)" style="fill:#e0e0e0"/><path d="M354,456.63H310.69V460H354Z" transform="translate(-217 -327.01)" style="fill:#eee"/><path d="M342.05,380.06h-19.4v6h19.4Z" transform="translate(-217 -327.01)" style="fill:#614124"/><path d="M289.22,424A8.08,8.08,0,1,0,281,415.9,8.14,8.14,0,0,0,289.22,424Z" transform="translate(-217 -327.01)" style="fill:#f5f5f5"/><path d="M292.74,421.56h-7.1a2.12,2.12,0,0,0-1,.24,2.16,2.16,0,0,0-.75.66,10.79,10.79,0,0,0,10.49.06,2.09,2.09,0,0,0-1.66-1Z" transform="translate(-217 -327.01)" style="fill:#614124"/><path d="M285.7,416.11s-1,3-1.61,2.69c0,0,5.48,4.65,10.31,0a14.23,14.23,0,0,0-2.08-2.69Z" transform="translate(-217 -327.01)" style="fill:#333"/><path d="M289.21,419.83a4,4,0,1,0-4.07-4A4,4,0,0,0,289.21,419.83Z" transform="translate(-217 -327.01)" style="fill:#333"/><path d="M287.78,420.17h2.84v1.09a1.27,1.27,0,0,1-.38.9,1.34,1.34,0,0,1-.92.38h-.25a1.32,1.32,0,0,1-.92-.38,1.27,1.27,0,0,1-.38-.9v-1.09Z" transform="translate(-217 -327.01)" style="opacity:0.10000000149011612;isolation:isolate"/><path d="M288.08,420.11h2.24a.3.3,0,0,1,.21.08.29.29,0,0,1,.09.21v.79a1.16,1.16,0,0,1-.1.49,1.19,1.19,0,0,1-.28.42,1.39,1.39,0,0,1-.43.28,1.33,1.33,0,0,1-.49.09h-.25a1.31,1.31,0,0,1-.92-.37,1.3,1.3,0,0,1-.38-.91v-.79a.52.52,0,0,1,0-.11.46.46,0,0,1,.16-.16l.12,0Z" transform="translate(-217 -327.01)" style="fill:#f8a47e"/><path d="M287.79,420.5a4.05,4.05,0,0,0,2.83,0v-.34h-2.83Z" transform="translate(-217 -327.01)" style="opacity:0.10000000149011612;isolation:isolate"/><path d="M289.21,420.69a4,4,0,1,0-4.07-4A4,4,0,0,0,289.21,420.69Z" transform="translate(-217 -327.01)" style="fill:#f8a47e"/><path d="M285.31,415.18h7.76s-.66-3.08-3.6-2.88A5.25,5.25,0,0,0,285.31,415.18Z" transform="translate(-217 -327.01)" style="fill:#333"/><path d="M285.23,417.22c.21,0,.38-.31.38-.69s-.17-.7-.38-.7-.38.31-.38.7S285,417.22,285.23,417.22Z" transform="translate(-217 -327.01)" style="fill:#f8a47e"/><path d="M293.17,417.22c.21,0,.38-.31.38-.69s-.17-.7-.38-.7-.38.31-.38.7S293,417.22,293.17,417.22Z" transform="translate(-217 -327.01)" style="fill:#f8a47e"/><path d="M285.31,415.28h7.76s-.66-3.07-3.6-2.88A5.25,5.25,0,0,0,285.31,415.28Z" transform="translate(-217 -327.01)" style="opacity:0.10000000149011612;isolation:isolate"/><path d="M294.53,461.88a8.09,8.09,0,1,0-8.18-8.09A8.13,8.13,0,0,0,294.53,461.88Z" transform="translate(-217 -327.01)" style="fill:#e0e0e0"/><path d="M354,366.47H310.69v3.4H354Z" transform="translate(-217 -327.01)" style="fill:#e0e0e0"/><path d="M354,373.27H310.69v3.39H354Z" transform="translate(-217 -327.01)" style="fill:#e0e0e0"/><path d="M330.75,352.43l-19.76.29a.48.48,0,0,0-.48.49v.31a.5.5,0,0,0,.5.48l19.76-.3a.48.48,0,0,0,.48-.48v-.32A.48.48,0,0,0,330.75,352.43Z" transform="translate(-217 -327.01)" style="fill:#dcdbdb"/><path d="M335.66,353.64a.77.77,0,1,0-.79-.76A.79.79,0,0,0,335.66,353.64Z" transform="translate(-217 -327.01)" style="fill:#dcdbdb"/></svg>