<svg id="Layer_1" data-name="Layer 1" xmlns="http://www.w3.org/2000/svg" width="417.63" height="379.78" viewBox="0 0 417.63 379.78"><path d="M459.84,314.25l0,1c1.24,42.53-3.12,75.68-10.5,101.51l-21.92,13.62,18-2.79.52-.08c-9.78,28.39-23.3,46.73-36.07,58.53A93.49,93.49,0,0,1,388,501.37l-1.23.6c-1,.49-2,.92-2.93,1.32l-12.05.63c-.17-.56-.32-1.11-.47-1.68-.11-.35-.2-.7-.29-1.05s-.25-.93-.37-1.4c-14.24-54.89,3.71-98.68,27.16-129.89a1.66,1.66,0,0,1,.23-.31,212.61,212.61,0,0,1,25.34-27.88l5.33,13.57.76-19a208.61,208.61,0,0,1,29.62-21.61C459.6,314.38,459.84,314.25,459.84,314.25Z" transform="translate(-89.18 -230.61)" style="fill:#bd9695"/><polygon points="371.08 83.84 370.68 84.68 345.93 136.51 345.48 137.43 338.74 151.56 338.5 152.04 316.99 197.09 316.95 197.15 281.89 270.58 281.36 271.68 280.52 273.42 279.47 273.48 280.3 271.73 281.52 269.19 316.12 196.73 316.77 195.38 369.95 84.05 370.24 83.44 371.08 83.84" style="fill:#fff"/><rect x="424.49" y="371.8" width="37.25" height="0.81" transform="translate(-222.1 86.08) rotate(-34.52)" style="fill:#fff"/><rect x="432.04" y="359.27" width="29.2" height="0.81" transform="translate(-214.37 85.83) rotate(-34.52)" style="fill:#fff"/><rect x="401.6" y="369.33" width="0.81" height="58.73" transform="translate(-137.11 -175.61) rotate(-7.39)" style="fill:#fff"/><path d="M367,513.34s28.57,13.5,69.22-10.74L423,496.34l21.52.87c15.86-11.1,33.28-28,51.36-53.48l-5-2.38,6.52.26q4.58-6.53,9.19-13.81a157.79,157.79,0,0,0-29,.91l-8.76,11.87,2.48-11C436.41,434.85,385.61,453.14,367,513.34Z" transform="translate(-89.18 -230.61)" style="fill:#dfbb9d"/><rect x="353.59" y="468.78" width="164.21" height="0.91" transform="matrix(0.86, -0.5, 0.5, 0.86, -266.42, 53.37)" style="fill:#fff"/><rect x="479.4" y="440.56" width="0.85" height="20.4" transform="translate(-106.95 651.22) rotate(-84.11)" style="fill:#fff"/><rect x="471.36" y="445.29" width="0.85" height="24.04" transform="translate(-150.38 610.95) rotate(-79.9)" style="fill:#fff"/><path d="M400.38,461.23l-.71-.81c11.9-10.57,26.39-18.82,43.06-24.51l.35,1C426.54,442.57,412.17,450.74,400.38,461.23Z" transform="translate(-89.18 -230.61)" style="fill:#87553a"/><path d="M116.47,393.53c0,.35.1.69.14,1,5.88,42.14,15.72,74.09,27.31,98.33l23.89,9.77-18.24.26h-.52c14.38,26.36,30.77,42.18,45.34,51.68A93.54,93.54,0,0,0,218.52,566l1.31.39c1.08.31,2.12.57,3.1.81l12-1.39c.07-.59.14-1.16.19-1.74,0-.36.08-.72.1-1.09s.1-1,.14-1.43c4.87-56.5-20.14-96.68-48.48-123.54a2.38,2.38,0,0,0-.28-.26A211.05,211.05,0,0,0,157,414.53l-3,14.27L150,410.18a209.85,209.85,0,0,0-32.81-16.37Z" transform="translate(-89.18 -230.61)" style="fill:#bd9695"/><polygon points="26.9 163.19 27.43 163.95 60.49 210.92 61.09 211.75 70.1 224.56 70.41 224.99 99.15 265.81 99.19 265.87 146.03 332.41 146.73 333.4 147.85 334.98 148.9 334.86 147.79 333.28 146.16 330.97 99.94 265.31 99.08 264.09 28.04 163.21 27.66 162.65 26.9 163.19" style="fill:#fff"/><rect x="142.23" y="429.26" width="0.81" height="37.25" transform="translate(-412.85 158.04) rotate(-65.1)" style="fill:#fff"/><rect x="136.67" y="421.51" width="0.81" height="29.2" transform="translate(-405.4 146.18) rotate(-65.1)" style="fill:#fff"/><rect x="187.19" y="437.76" width="0.81" height="58.73" transform="translate(-107.21 -222.96) rotate(-2.23)" style="fill:#fff"/><path d="M241.27,574.31s-25.91,18.08-70,1l12-8.37-21.07,4.44c-17.49-8.29-37.49-22.06-59.56-44.14l4.56-3.19-6.39,1.34q-5.59-5.67-11.37-12.08a157.34,157.34,0,0,1,28.75-3.94l10.61,10.23-4.29-10.44C159.71,508.53,212.85,518.07,241.27,574.31Z" transform="translate(-89.18 -230.61)" style="fill:#dfbb9d"/><rect x="165.7" y="460.2" width="0.91" height="164.21" transform="translate(-489.06 275.54) rotate(-69.31)" style="fill:#fff"/><rect x="109.36" y="531.04" width="20.4" height="0.85" transform="translate(-226.87 -179.32) rotate(-15.5)" style="fill:#fff"/><rect x="116.56" y="536.15" width="24.04" height="0.85" transform="matrix(0.94, -0.34, 0.34, 0.94, -262.69, -155.76)" style="fill:#fff"/><path d="M199.64,528.51l.57-.91c-13.5-8.44-29.16-14.15-46.55-17l-.17,1.06C170.73,514.49,186.26,520.15,199.64,528.51Z" transform="translate(-89.18 -230.61)" style="fill:#87553a"/><path d="M247,600.51H218.06a17.45,17.45,0,0,1-17.54-16.6L184.21,299.39a17.42,17.42,0,0,1,17.54-18h33.34Z" transform="translate(-89.18 -230.61)" style="fill:#87553a"/><path d="M389.77,299.39l-8.54,284.52a17.44,17.44,0,0,1-17.54,16.6H235.86c-9.42,0-20.5-7.32-20.89-16.6l-8.53-284.52a17.42,17.42,0,0,1,17.54-18H372.23A17.42,17.42,0,0,1,389.77,299.39Z" transform="translate(-89.18 -230.61)" style="fill:#f8e4d9"/><path d="M241.73,301h-6.85a3.36,3.36,0,0,0-2.41,1,3.42,3.42,0,0,0,2.41,5.84h125.5a3.45,3.45,0,0,0,3.42-3.42,3.43,3.43,0,0,0-3.42-3.43H241.73Z" transform="translate(-89.18 -230.61)" style="fill:#493116"/><path d="M359,413H237.24a4.32,4.32,0,0,1-4.32-4.16l-3-79.2a4.32,4.32,0,0,1,4.32-4.49H362a4.32,4.32,0,0,1,4.32,4.49l-3,79.2A4.32,4.32,0,0,1,359,413Z" transform="translate(-89.18 -230.61)" style="fill:#fff"/><rect x="153.58" y="215.34" width="30.8" height="20.54" rx="5.99" style="fill:#dfbb9d"/><rect x="153.58" y="248.86" width="30.8" height="20.54" rx="5.99" style="fill:#dfbb9d"/><rect x="153.58" y="282.37" width="30.8" height="20.54" rx="5.99" style="fill:#dfbb9d"/><rect x="153.58" y="315.88" width="30.8" height="20.54" rx="5.99" style="fill:#493116"/><rect x="192.68" y="215.34" width="30.8" height="20.54" rx="5.99" style="fill:#dfbb9d"/><rect x="192.68" y="248.86" width="30.8" height="20.54" rx="5.99" style="fill:#dfbb9d"/><rect x="192.68" y="282.37" width="30.8" height="20.54" rx="5.99" style="fill:#dfbb9d"/><rect x="192.68" y="315.88" width="30.8" height="20.54" rx="5.99" style="fill:#dfbb9d"/><rect x="231.78" y="215.34" width="30.8" height="20.54" rx="5.99" style="fill:#dfbb9d"/><rect x="231.78" y="248.86" width="30.8" height="20.54" rx="5.99" style="fill:#dfbb9d"/><rect x="231.78" y="282.37" width="30.8" height="20.54" rx="5.99" style="fill:#dfbb9d"/><rect x="231.78" y="315.88" width="30.8" height="20.54" rx="5.99" style="fill:#493116"/><rect x="159.17" y="215.34" width="30.8" height="20.54" rx="5.99" style="fill:#946666"/><rect x="159.17" y="248.86" width="30.8" height="20.54" rx="5.99" style="fill:#946666"/><rect x="159.17" y="282.37" width="30.8" height="20.54" rx="5.99" style="fill:#946666"/><rect x="159.17" y="315.88" width="30.8" height="20.54" rx="5.99" style="fill:#493116"/><rect x="198.27" y="215.34" width="30.8" height="20.54" rx="5.99" style="fill:#946666"/><rect x="198.27" y="248.86" width="30.8" height="20.54" rx="5.99" style="fill:#946666"/><rect x="198.27" y="282.37" width="30.8" height="20.54" rx="5.99" style="fill:#946666"/><rect x="198.27" y="315.88" width="30.8" height="20.54" rx="5.99" style="fill:#946666"/><rect x="237.36" y="215.34" width="30.8" height="20.54" rx="5.99" style="fill:#946666"/><rect x="237.36" y="248.86" width="30.8" height="20.54" rx="5.99" style="fill:#946666"/><rect x="237.36" y="282.37" width="30.8" height="20.54" rx="5.99" style="fill:#946666"/><rect x="237.36" y="315.88" width="30.8" height="20.54" rx="5.99" style="fill:#493116"/><path d="M273.17,467.05H254.34a6.56,6.56,0,0,1-6.55-6.55v-8.56a6.56,6.56,0,0,1,6.55-6.55h18.83a6.55,6.55,0,0,1,6.54,6.55v8.56A6.55,6.55,0,0,1,273.17,467.05Zm-18.83-20.54a5.44,5.44,0,0,0-5.43,5.43v8.56a5.44,5.44,0,0,0,5.43,5.43h18.83a5.44,5.44,0,0,0,5.43-5.43v-8.56a5.44,5.44,0,0,0-5.43-5.43Z" transform="translate(-89.18 -230.61)" style="fill:#fff"/><path d="M273.17,500.56H254.34a6.56,6.56,0,0,1-6.55-6.55v-8.56a6.55,6.55,0,0,1,6.55-6.54h18.83a6.54,6.54,0,0,1,6.54,6.54V494A6.55,6.55,0,0,1,273.17,500.56ZM254.34,480a5.44,5.44,0,0,0-5.43,5.43V494a5.44,5.44,0,0,0,5.43,5.43h18.83A5.44,5.44,0,0,0,278.6,494v-8.56a5.44,5.44,0,0,0-5.43-5.43Z" transform="translate(-89.18 -230.61)" style="fill:#fff"/><path d="M273.17,534.07H254.34a6.56,6.56,0,0,1-6.55-6.55V519a6.55,6.55,0,0,1,6.55-6.55h18.83a6.54,6.54,0,0,1,6.54,6.55v8.55A6.55,6.55,0,0,1,273.17,534.07Zm-18.83-20.53a5.44,5.44,0,0,0-5.43,5.43v8.55a5.44,5.44,0,0,0,5.43,5.43h18.83a5.44,5.44,0,0,0,5.43-5.43V519a5.44,5.44,0,0,0-5.43-5.43Z" transform="translate(-89.18 -230.61)" style="fill:#fff"/><path d="M273.17,567.58H254.34a6.55,6.55,0,0,1-6.55-6.54v-8.56a6.56,6.56,0,0,1,6.55-6.55h18.83a6.55,6.55,0,0,1,6.54,6.55V561A6.54,6.54,0,0,1,273.17,567.58Zm-18.83-20.53a5.44,5.44,0,0,0-5.43,5.43V561a5.44,5.44,0,0,0,5.43,5.43h18.83A5.44,5.44,0,0,0,278.6,561v-8.56a5.44,5.44,0,0,0-5.43-5.43Z" transform="translate(-89.18 -230.61)" style="fill:#fff"/><path d="M312.26,467.05H293.44a6.56,6.56,0,0,1-6.55-6.55v-8.56a6.56,6.56,0,0,1,6.55-6.55h18.82a6.55,6.55,0,0,1,6.55,6.55v8.56A6.55,6.55,0,0,1,312.26,467.05Zm-18.82-20.54a5.44,5.44,0,0,0-5.43,5.43v8.56a5.44,5.44,0,0,0,5.43,5.43h18.82a5.44,5.44,0,0,0,5.44-5.43v-8.56a5.44,5.44,0,0,0-5.44-5.43Z" transform="translate(-89.18 -230.61)" style="fill:#fff"/><path d="M312.26,500.56H293.44a6.56,6.56,0,0,1-6.55-6.55v-8.56a6.55,6.55,0,0,1,6.55-6.54h18.82a6.54,6.54,0,0,1,6.55,6.54V494A6.55,6.55,0,0,1,312.26,500.56ZM293.44,480a5.44,5.44,0,0,0-5.43,5.43V494a5.44,5.44,0,0,0,5.43,5.43h18.82A5.44,5.44,0,0,0,317.7,494v-8.56a5.44,5.44,0,0,0-5.44-5.43Z" transform="translate(-89.18 -230.61)" style="fill:#fff"/><path d="M312.26,534.07H293.44a6.56,6.56,0,0,1-6.55-6.55V519a6.55,6.55,0,0,1,6.55-6.55h18.82a6.55,6.55,0,0,1,6.55,6.55v8.55A6.55,6.55,0,0,1,312.26,534.07Zm-18.82-20.53A5.44,5.44,0,0,0,288,519v8.55a5.44,5.44,0,0,0,5.43,5.43h18.82a5.44,5.44,0,0,0,5.44-5.43V519a5.44,5.44,0,0,0-5.44-5.43Z" transform="translate(-89.18 -230.61)" style="fill:#fff"/><path d="M312.26,567.58H293.44a6.55,6.55,0,0,1-6.55-6.54v-8.56a6.56,6.56,0,0,1,6.55-6.55h18.82a6.55,6.55,0,0,1,6.55,6.55V561A6.54,6.54,0,0,1,312.26,567.58Zm-18.82-20.53a5.44,5.44,0,0,0-5.43,5.43V561a5.44,5.44,0,0,0,5.43,5.43h18.82A5.44,5.44,0,0,0,317.7,561v-8.56a5.44,5.44,0,0,0-5.44-5.43Z" transform="translate(-89.18 -230.61)" style="fill:#fff"/><path d="M351.36,467.05H332.54A6.56,6.56,0,0,1,326,460.5v-8.56a6.56,6.56,0,0,1,6.55-6.55h18.82a6.56,6.56,0,0,1,6.55,6.55v8.56A6.56,6.56,0,0,1,351.36,467.05Zm-18.82-20.54a5.44,5.44,0,0,0-5.43,5.43v8.56a5.44,5.44,0,0,0,5.43,5.43h18.82a5.44,5.44,0,0,0,5.43-5.43v-8.56a5.44,5.44,0,0,0-5.43-5.43Z" transform="translate(-89.18 -230.61)" style="fill:#fff"/><path d="M351.36,500.56H332.54A6.56,6.56,0,0,1,326,494v-8.56a6.55,6.55,0,0,1,6.55-6.54h18.82a6.55,6.55,0,0,1,6.55,6.54V494A6.56,6.56,0,0,1,351.36,500.56ZM332.54,480a5.44,5.44,0,0,0-5.43,5.43V494a5.44,5.44,0,0,0,5.43,5.43h18.82a5.44,5.44,0,0,0,5.43-5.43v-8.56a5.44,5.44,0,0,0-5.43-5.43Z" transform="translate(-89.18 -230.61)" style="fill:#fff"/><path d="M351.36,534.07H332.54a6.56,6.56,0,0,1-6.55-6.55V519a6.55,6.55,0,0,1,6.55-6.55h18.82a6.55,6.55,0,0,1,6.55,6.55v8.55A6.56,6.56,0,0,1,351.36,534.07Zm-18.82-20.53a5.43,5.43,0,0,0-5.43,5.43v8.55a5.43,5.43,0,0,0,5.43,5.43h18.82a5.43,5.43,0,0,0,5.43-5.43V519a5.43,5.43,0,0,0-5.43-5.43Z" transform="translate(-89.18 -230.61)" style="fill:#fff"/><path d="M351.36,567.58H332.54A6.55,6.55,0,0,1,326,561v-8.56a6.56,6.56,0,0,1,6.55-6.55h18.82a6.56,6.56,0,0,1,6.55,6.55V561A6.55,6.55,0,0,1,351.36,567.58Zm-18.82-20.53a5.43,5.43,0,0,0-5.43,5.43V561a5.44,5.44,0,0,0,5.43,5.43h18.82a5.44,5.44,0,0,0,5.43-5.43v-8.56a5.43,5.43,0,0,0-5.43-5.43Z" transform="translate(-89.18 -230.61)" style="fill:#fff"/><path d="M348.16,601.26H235.86c-9.67,0-21.23-7.57-21.64-17.32l-8.53-284.53a17.77,17.77,0,0,1,5-13.15,18.29,18.29,0,0,1,13.3-5.65H372.23a18.29,18.29,0,0,1,13.3,5.65,17.81,17.81,0,0,1,5,13.16l-.47,15.52-1.5,0,.47-15.54a16.32,16.32,0,0,0-4.58-12.07,16.75,16.75,0,0,0-12.21-5.18H224a16.75,16.75,0,0,0-12.21,5.18,16.32,16.32,0,0,0-4.58,12.07l8.53,284.53c.37,8.93,11.13,15.87,20.14,15.87h112.3Z" transform="translate(-89.18 -230.61)" style="fill:#493116"/><rect x="302.75" y="440.58" width="165.51" height="1.5" transform="translate(-156.34 582.85) rotate(-88.29)" style="fill:#493116"/><path d="M353.48,246.3v61.57H241.88V246.3a16.18,16.18,0,0,0-5.15-10.78,16.48,16.48,0,0,0-11.22-4.41H337.12a16.42,16.42,0,0,1,11.21,4.41A16.05,16.05,0,0,1,353.48,246.3Z" transform="translate(-89.18 -230.61)" style="fill:#fff"/><path d="M241.88,246.3H209.13a16.15,16.15,0,0,1,5.16-10.78,16.48,16.48,0,0,1,22.44,0A16.18,16.18,0,0,1,241.88,246.3Z" transform="translate(-89.18 -230.61)" style="fill:#87553a"/><path d="M354,308.37H241.38V246.3a15.56,15.56,0,0,0-5-10.41,15.92,15.92,0,0,0-10.87-4.28v-1H337.12a16.92,16.92,0,0,1,11.55,4.54A16.55,16.55,0,0,1,354,246.27v62.1Zm-111.6-1H353V246.32a15.49,15.49,0,0,0-5-10.43,15.92,15.92,0,0,0-10.87-4.28H231.25a17.07,17.07,0,0,1,5.82,3.54,16.6,16.6,0,0,1,5.3,11.12Z" transform="translate(-89.18 -230.61)" style="fill:#87553a"/><path d="M360.38,308.38H234.89a3.92,3.92,0,0,1-2.77-6.7,3.85,3.85,0,0,1,2.77-1.15h6.84v1h-6.84a2.82,2.82,0,0,0-2.06.86,2.88,2.88,0,0,0-.86,2.07,2.92,2.92,0,0,0,2.92,2.92H360.38a2.86,2.86,0,0,0,2.06-.86,2.9,2.9,0,0,0,.86-2.06,2.93,2.93,0,0,0-2.92-2.93h-6.85v-1h6.85a3.93,3.93,0,0,1,3.92,3.93,3.94,3.94,0,0,1-3.92,3.92Z" transform="translate(-89.18 -230.61)" style="fill:#87553a"/><path d="M365.13,604.84c0,2.77,20.32,5,45.37,5s45.37-2.25,45.37-5a.77.77,0,0,0,0-.15V591.13H365.16v13.53A.57.57,0,0,0,365.13,604.84Z" transform="translate(-89.18 -230.61)" style="fill:#f39b51"/><ellipse cx="321.32" cy="360.65" rx="45.37" ry="5.02" style="fill:#fcc65b"/><path d="M354.41,588.48c0,2.76,20.32,5,45.37,5s45.37-2.26,45.37-5a.68.68,0,0,0,0-.15V574.77H354.44V588.3A.52.52,0,0,0,354.41,588.48Z" transform="translate(-89.18 -230.61)" style="fill:#f39b51"/><ellipse cx="310.6" cy="344.28" rx="45.37" ry="5.02" style="fill:#fcc65b"/><path d="M365.13,572.12c0,2.76,20.32,5,45.37,5s45.37-2.25,45.37-5a.68.68,0,0,0,0-.15V558.4H365.16v13.53A.63.63,0,0,0,365.13,572.12Z" transform="translate(-89.18 -230.61)" style="fill:#f39b51"/><ellipse cx="321.32" cy="327.92" rx="45.37" ry="5.02" style="fill:#fcc65b"/><path d="M410.5,610.39c18.45,0,45.91-1.48,45.91-5.55h-1.08c0,1.56-15.4,4.48-44.83,4.48h-3.18v1.07Z" transform="translate(-89.18 -230.61)" style="fill:#87553a"/><path d="M392.51,610l.05-1.07c-4.59-.22-8.8-.52-12.52-.89l-.11,1.06C383.67,609.46,387.9,609.76,392.51,610Z" transform="translate(-89.18 -230.61)" style="fill:#87553a"/><path d="M428.41,592.82c17-1.55,17-3.7,17-4.41h-1.08c0,.53-2.88,2.14-16.07,3.34Z" transform="translate(-89.18 -230.61)" style="fill:#87553a"/><path d="M399.55,594c5.1,0,10.11-.1,14.89-.28l0-1.07c-8.54.33-18,.37-26.77.1l0,1.07C391.49,593.91,395.51,594,399.55,594Z" transform="translate(-89.18 -230.61)" style="fill:#87553a"/><path d="M376.34,593.26l.07-1.07c-4.84-.32-9.06-.73-12.54-1.22l-.15,1.06C367.23,592.53,371.47,592.94,376.34,593.26Z" transform="translate(-89.18 -230.61)" style="fill:#87553a"/><path d="M441,562.8c15.12-1.54,15.12-3.49,15.12-4.22h-1.07s-.39,1.75-14.16,3.15Z" transform="translate(-89.18 -230.61)" style="fill:#87553a"/><path d="M410.23,564.13c5.21,0,10.31-.09,15.16-.29l-.05-1.07c-4.83.19-9.91.29-15.11.29-9.32,0-18.26-.31-25.87-.9l-.08,1.07C391.92,563.82,400.89,564.13,410.23,564.13Z" transform="translate(-89.18 -230.61)" style="fill:#87553a"/><path d="M349.05,555.75c0,2.77,20.32,5,45.37,5s45.37-2.25,45.37-5a.89.89,0,0,0,0-.15V542H349.08v13.53A.57.57,0,0,0,349.05,555.75Z" transform="translate(-89.18 -230.61)" style="fill:#f39b51"/><ellipse cx="305.24" cy="311.56" rx="45.37" ry="5.02" style="fill:#fcc65b"/><path d="M357.47,542.17c0,1.86,16.54,3.37,36.95,3.37s37-1.51,37-3.37-16.55-3.38-37-3.38S357.47,540.3,357.47,542.17Z" transform="translate(-89.18 -230.61)" style="fill:#f39b51"/><rect x="228.12" y="27.56" width="24.25" height="3" style="fill:#bd9695"/><rect x="168.12" y="27.56" width="48.77" height="3" style="fill:#bd9695"/><rect x="196.21" y="40.56" width="56.17" height="3" style="fill:#bd9695"/><rect x="168.12" y="40.56" width="21.19" height="3" style="fill:#bd9695"/><rect x="218.93" y="54.56" width="22.98" height="3" style="fill:#bd9695"/><rect x="168.12" y="54.56" width="41.11" height="3" style="fill:#bd9695"/><rect x="177.11" y="181.65" width="30.41" height="1.5" style="fill:#493116"/><path d="M359,413.76H308.5v-1.5H359a3.56,3.56,0,0,0,3.57-3.44l2.65-69.32,1.5.06L364,408.88A5.06,5.06,0,0,1,359,413.76Z" transform="translate(-89.18 -230.61)" style="fill:#493116"/><circle cx="295.68" cy="368.61" r="28.55" transform="translate(-103.64 -218.53) rotate(-2.28)" style="fill:#946666"/><polygon points="205.42 152.56 192.33 139.09 193.76 137.7 204.86 149.12 219.15 119.52 220.95 120.39 205.42 152.56" style="fill:#fff"/></svg>