<svg id="Layer_1" data-name="Layer 1" xmlns="http://www.w3.org/2000/svg" xmlns:xlink="http://www.w3.org/1999/xlink" width="161" height="161" viewBox="0 0 161 161"><defs><linearGradient id="linear-gradient" x1="389.51" y1="-33.04" x2="278.51" y2="-174.21" gradientTransform="matrix(1, 0, 0, -1, -156, 56)" gradientUnits="userSpaceOnUse"><stop offset="0" stop-color="#1a72dd"/><stop offset="1" stop-color="#244dbb"/></linearGradient><linearGradient id="linear-gradient-2" x1="389.51" y1="-33.04" x2="278.51" y2="-174.21" gradientTransform="matrix(1, 0, 0, -1, -156, 56)" gradientUnits="userSpaceOnUse"><stop offset="0" stop-color="#dfbb9d"/><stop offset="1" stop-color="#492f10"/></linearGradient><linearGradient id="linear-gradient-3" x1="389.51" y1="-33.04" x2="278.51" y2="-174.21" gradientTransform="matrix(1, 0, 0, -1, -254.06, -22.61)" gradientUnits="userSpaceOnUse"><stop offset="0" stop-color="#865439"/><stop offset="1" stop-color="#492f10"/></linearGradient><mask id="mask" x="19.88" y="32" width="121.2" height="96.84" maskUnits="userSpaceOnUse"><g transform="translate(-98.1 -78.6)"><g id="mask0_35_508" data-name="mask0 35 508"><circle cx="178.5" cy="159" r="48.4" style="fill:url(#linear-gradient)"/></g></g></mask><mask id="mask-2" x="32" y="32" width="96.84" height="114.39" maskUnits="userSpaceOnUse"><g transform="translate(-98.1 -78.6)"><g id="mask1_35_508" data-name="mask1 35 508"><circle cx="178.5" cy="159" r="48.4" style="fill:url(#linear-gradient-2)"/></g></g></mask></defs><circle cx="80.5" cy="80.5" r="80.5" style="fill:#7b0d0d;fill-opacity:0.05000000074505806"/><circle cx="80.5" cy="80.5" r="62.5" style="fill:#400909;fill-opacity:0.10000000149011612"/><circle cx="80.4" cy="80.4" r="48.4" style="fill:url(#linear-gradient-3)"/><g style="mask:url(#mask)"><path d="M215,188a16.3,16.3,0,0,1-3.9-6.4.3.3,0,0,0-.1.2h.6a.2.2,0,0,0,0-.3c-.8-.4-.9-1.8-1-2.6s-.5-2.1-.7-3.1-.7-4.3-.9-6.4h-.2a27.7,27.7,0,0,1,4.5,3.1,16.1,16.1,0,0,1,3.3,3.6,11.1,11.1,0,0,1,1.7,4.9,12.2,12.2,0,0,1-.1,5.7c0,.2.2.2.3.1a15.7,15.7,0,0,0-.6-8.6c-.8-2.7-2.8-4.6-4.9-6.3l-4-2.8c-.1,0-.3,0-.3.2.3,2.3.6,4.6,1,6.8s.5,2.3.7,3.4.3,1.8,1.1,2.2v-.3h-.6v.2a19.1,19.1,0,0,0,4,6.5C214.9,188.3,215.1,188.1,215,188Z" transform="translate(-98.1 -78.6)" style="fill:#e8e8e8"/><path d="M209.1,169.5a44.2,44.2,0,0,1,6.8,16.3c0,.2.3.1.3-.1a45.6,45.6,0,0,0-6.9-16.4C209.2,169.2,209,169.3,209.1,169.5Z" transform="translate(-98.1 -78.6)" style="fill:#e8e8e8"/><path d="M210.2,177.6c1.4.3,2.9.6,3.9,1.8s.3-.1.2-.2a7.1,7.1,0,0,0-4-1.9C210.1,177.2,210,177.5,210.2,177.6Z" transform="translate(-98.1 -78.6)" style="fill:#e8e8e8"/><path d="M213.9,177.6a8.2,8.2,0,0,1,.6-3.8c.1-.2-.1-.4-.2-.2a7.9,7.9,0,0,0-.7,4Z" transform="translate(-98.1 -78.6)" style="fill:#e8e8e8"/><path d="M216.2,175c.6-4.2,3.5-7.4,6.2-10.5h-.2c-.6,2.3.9,4.4,1.4,6.6a15,15,0,0,1,.5,3.7v1.8a2.8,2.8,0,0,1-.1.9c-.1.4-.5,1-1,.6l-.2.2c.9.5.6,1.7.4,2.4a4.6,4.6,0,0,1-1.1,2.7c-.9,1.1-2.2,1.9-2.6,3.4s.2.2.3.1c.5-1.8,2.4-2.6,3.2-4.3a8.2,8.2,0,0,0,.6-2.7c.1-.7,0-1.5-.6-1.8s-.3.1-.2.2a.8.8,0,0,0,1,.1,1.3,1.3,0,0,0,.5-1.1,16.2,16.2,0,0,0-.1-4.4,13.8,13.8,0,0,0-1-4,6.5,6.5,0,0,1-.7-4.3c0-.2-.2-.3-.3-.2-2.7,3.1-5.6,6.4-6.3,10.6C215.9,175.1,216.1,175.2,216.2,175Z" transform="translate(-98.1 -78.6)" style="fill:#e8e8e8"/><path d="M221.9,165.3a49,49,0,0,0-3.6,15.1h.3a48.4,48.4,0,0,1,3.6-15C222.2,165.2,222,165.2,221.9,165.3Z" transform="translate(-98.1 -78.6)" style="fill:#e8e8e8"/><path d="M195.2,180c2.3.5,4.5-.6,6.7-1a20.4,20.4,0,0,1,7.4-.1c.2.1.2-.2.1-.2a20,20,0,0,0-6.9-.1l-3.4.8a8.1,8.1,0,0,1-3.8.4C195.1,179.7,195,180,195.2,180Z" transform="translate(-98.1 -78.6)" style="fill:#e8e8e8"/><path d="M223.8,179.2a8.6,8.6,0,0,1,3.9.3l3.8.8a47.8,47.8,0,0,0,7.5.8c.2,0,.2-.2,0-.3a51.6,51.6,0,0,1-7.9-.8l-3.8-.8a8.8,8.8,0,0,0-3.6-.3C223.6,178.9,223.6,179.2,223.8,179.2Z" transform="translate(-98.1 -78.6)" style="fill:#e8e8e8"/><path d="M118.1,171.3c3.3-.7,6.6-1.6,10-2.1a48.6,48.6,0,0,1,10.1-.3c6.5.6,12.8,2.3,19.2,3.6a75.3,75.3,0,0,0,10.6,1.6.2.2,0,0,0,0-.3c-6.6-.4-13-2.1-19.4-3.5s-12.8-2.3-19.4-1.5a85.6,85.6,0,0,0-11.2,2.3C117.9,171.1,117.9,171.4,118.1,171.3Z" transform="translate(-98.1 -78.6)" style="fill:#e8e8e8"/><path d="M144.7,169.5a100.9,100.9,0,0,0,16.2-3.2l16.3-4.3,16.3-4.3a56.4,56.4,0,0,1,8.2-1.5,43.8,43.8,0,0,1,8.1,0c6.3.6,12.4,2.3,18.4,3.9.2.1.3-.2.1-.2a111.8,111.8,0,0,0-16.2-3.7,39.5,39.5,0,0,0-16.3.7l-8,2-8.2,2.2-16.5,4.4c-6.1,1.6-12.2,3.2-18.4,3.7A.1.1,0,1,0,144.7,169.5Z" transform="translate(-98.1 -78.6)" style="fill:#e8e8e8"/><path d="M129.6,186.3l6.9.3,6.6.2a34,34,0,0,0,6.4-.8,52.5,52.5,0,0,1,6.8-.8,62.6,62.6,0,0,1,7.5-.2c.2.1.2-.2,0-.2a65,65,0,0,0-13.2.7,37.4,37.4,0,0,1-6.7,1c-2.2.1-4.4-.1-6.6-.2l-7.7-.3A.1.1,0,1,0,129.6,186.3Z" transform="translate(-98.1 -78.6)" style="fill:#e8e8e8"/><path d="M126.7,192.2a12.1,12.1,0,0,1,4.2-5.3h-.2a16.4,16.4,0,0,1,1,3.8v-.2l-.7.2c-.1,0-.1.1-.1.2a2.4,2.4,0,0,1,.3,2c-.2.6-.8,1-1.1,1.4a10.7,10.7,0,0,0-1.6,2.7c-.1.2.2.3.3.1a11.1,11.1,0,0,1,2.2-3.4,1.8,1.8,0,0,0,.6-1.3,4.2,4.2,0,0,0-.4-1.6v.2l.7-.2c.1,0,.1-.1.1-.2a16.6,16.6,0,0,0-1.1-3.8h-.2a12,12,0,0,0-4.2,5.5C126.4,192.3,126.7,192.4,126.7,192.2Z" transform="translate(-98.1 -78.6)" style="fill:#e8e8e8"/><path d="M122.4,183.4a27.5,27.5,0,0,1,9.9-.2l4.6.8c1.6.2,3.3.2,4.9.3a.2.2,0,0,0,0-.3,40.3,40.3,0,0,1-4.9-.3l-5.1-.9a27.6,27.6,0,0,0-9.5.4C122.1,183.2,122.2,183.5,122.4,183.4Z" transform="translate(-98.1 -78.6)" style="fill:#e8e8e8"/><path d="M134.7,194.6a55.8,55.8,0,0,1,5.7-.8,26.4,26.4,0,0,1,5.6.4,29.4,29.4,0,0,0,5.1.5,16.8,16.8,0,0,1,5.5.3c.2,0,.2-.2.1-.3a18.9,18.9,0,0,0-5.3-.3h-2.8a14.5,14.5,0,0,1-2.9-.4,19.6,19.6,0,0,0-5.4-.3,55.4,55.4,0,0,0-5.7.7C134.5,194.3,134.5,194.6,134.7,194.6Z" transform="translate(-98.1 -78.6)" style="fill:#e8e8e8"/><path d="M186.1,196.8a94.7,94.7,0,0,1,10.6-.9c3.5-.1,6.9.1,10.4.1.1,0,.1-.2,0-.2l-10.6-.2a89.3,89.3,0,0,0-10.4.9A.2.2,0,0,0,186.1,196.8Z" transform="translate(-98.1 -78.6)" style="fill:#e8e8e8"/><path d="M201.7,198.8c1.3-.6,2.7.1,4.1.1l.9-.2,1.1-.4a14.9,14.9,0,0,0,2.1.2c.2-.1.1-.3-.1-.3s-1.5-.3-2.3-.1l-1,.4h-1.1c-1.3-.1-2.6-.6-3.9,0S201.5,198.9,201.7,198.8Z" transform="translate(-98.1 -78.6)" style="fill:#e8e8e8"/><path d="M220.6,188.5a17,17,0,0,1,7.1-.4,26.6,26.6,0,0,0,6.9.2c.1,0,.1-.3-.1-.3a28,28,0,0,1-7.1-.2,16,16,0,0,0-6.9.4C220.3,188.3,220.4,188.5,220.6,188.5Z" transform="translate(-98.1 -78.6)" style="fill:#e8e8e8"/><path d="M211.2,135a4.6,4.6,0,0,1-2.6-4.8,4.6,4.6,0,0,1,8.4-1.8,4.7,4.7,0,0,1-.5,5.5,4.7,4.7,0,0,1-6,.8.1.1,0,1,0-.1.2,4.8,4.8,0,0,0,5.8-.3,5,5,0,0,0,1.4-5.6,4.9,4.9,0,0,0-4.7-3,4.9,4.9,0,0,0-4.4,3.4,4.9,4.9,0,0,0,2.6,5.8C211.2,135.3,211.3,135.1,211.2,135Z" transform="translate(-98.1 -78.6)" style="fill:#e8e8e8"/><path d="M130.5,155.4c.9-.8,2.3-.2,3,.6a10.9,10.9,0,0,1,.8,1.5,1.6,1.6,0,0,0,.9.7.9.9,0,0,0,.7-.3,1,1,0,0,0,.4-.5.6.6,0,0,1,.9,0c.7.6.7,2,1.9,1.9s.1-.3,0-.3-1.1-1.9-2.2-2.1a.9.9,0,0,0-.9.3l-.3.6c-.5.4-1-.2-1.2-.6a4.3,4.3,0,0,0-1.8-2.2,2.3,2.3,0,0,0-2.4.2C130.2,155.4,130.3,155.6,130.5,155.4Z" transform="translate(-98.1 -78.6)" style="fill:#e8e8e8"/><path d="M193.4,142.9a1.8,1.8,0,0,1-.1-1.6c.4-.5.9-.3,1.3-.4a1.8,1.8,0,0,0,1.1-1.3c.2-.6,0-1.5.4-2.1s1.4.2,2.1-.2,0-.4-.2-.3-1.5-.4-2.1.3-.3,1.4-.4,2.1a1.7,1.7,0,0,1-.8,1.2c-.4.2-.9,0-1.2.2s-.6,1.5-.3,2.1S193.5,143,193.4,142.9Z" transform="translate(-98.1 -78.6)" style="fill:#e8e8e8"/><path d="M194.4,136.3a1.7,1.7,0,0,1,.3-1.4c.4-.4.9-.2,1.5-.4a1.1,1.1,0,0,0,.6-.7l.2-.6.2-.4c.2-.2.6-.3.7,0s.3.1.3,0a.7.7,0,0,0-1-.4c-.7.4-.4,1.4-1,1.7s-.8.1-1.2.3l-.6.4a1.8,1.8,0,0,0-.2,1.6C194.2,136.5,194.5,136.5,194.4,136.3Z" transform="translate(-98.1 -78.6)" style="fill:#e8e8e8"/><path d="M202.3,146.3a.9.9,0,0,1,.2-1.3.9.9,0,0,1,1.3.2c.7,1-.8,1.9-1.5,1.1s-.3,0-.2.2a1.5,1.5,0,0,0,1.7.2,1.3,1.3,0,1,0-1.7-.3A.1.1,0,1,0,202.3,146.3Z" transform="translate(-98.1 -78.6)" style="fill:#e8e8e8"/><path d="M203.4,147.8a1.5,1.5,0,0,1-.5-1.2c.2-.7,1-.5,1.3-.1a.8.8,0,0,1,.1,1.2.9.9,0,0,1-1.1,0,.1.1,0,1,0-.1.2c.3.4,1,.3,1.4,0a1.2,1.2,0,0,0,0-1.6c-.4-.4-1.2-.8-1.7-.2s-.1,1.4.3,1.9S203.5,148,203.4,147.8Z" transform="translate(-98.1 -78.6)" style="fill:#e8e8e8"/><path d="M140.5,167.3a16.5,16.5,0,0,0,3.2.6.1.1,0,1,0,0-.3,11.9,11.9,0,0,1-3.2-.5C140.4,167,140.3,167.3,140.5,167.3Z" transform="translate(-98.1 -78.6)" style="fill:#e8e8e8"/><path d="M210.6,159.9c6.4-.1,12.3,2.3,18.4,4a43.9,43.9,0,0,0,5.2,1.3c.1.1.2-.2,0-.2-6.2-1.3-12.1-3.9-18.3-5a31.5,31.5,0,0,0-5.3-.4A.2.2,0,1,0,210.6,159.9Z" transform="translate(-98.1 -78.6)" style="fill:#e8e8e8"/><path d="M148.1,119.3c.3.8.7,2.5,1.9,1.8s1-1,1.4-.4.3.8.7.9.3-.2.1-.2-.4-.9-.8-1.1a.8.8,0,0,0-.8-.1,8.7,8.7,0,0,1-1,.8c-.7.2-1-1.3-1.2-1.8S148,119.1,148.1,119.3Z" transform="translate(-98.1 -78.6)" style="fill:#e8e8e8"/><path d="M151,119.5a1.1,1.1,0,0,1,1.6.4c.1.4.2.6.7.6h.7c.4,0,.4.4.5.8s.2.7.6.7.2-.2,0-.2-.3-1.2-.7-1.5-1.1.1-1.4-.2-.2-.5-.4-.7l-.5-.3a1.3,1.3,0,0,0-1.2.1C150.7,119.3,150.9,119.6,151,119.5Z" transform="translate(-98.1 -78.6)" style="fill:#e8e8e8"/><path d="M159.4,128.3a1.3,1.3,0,0,0,1.4-.9,1,1,0,0,0-.8-1.2c-1.2-.5-1.9,1.3-.9,2s.3-.2.2-.3a.8.8,0,0,1,.6-1.5.8.8,0,0,1-.4,1.6C159.3,128,159.2,128.3,159.4,128.3Z" transform="translate(-98.1 -78.6)" style="fill:#e8e8e8"/><path d="M160.3,128.8c-.2-.2-.5-.4-.6-.7s.3-.9.7-.7.5.4.5.7-.5.5-.9.5-.2.2,0,.2a1,1,0,0,0,1.1-.5,1,1,0,0,0-.5-1.2.9.9,0,0,0-1.1.5c-.3.6.2,1,.6,1.4S160.5,128.9,160.3,128.8Z" transform="translate(-98.1 -78.6)" style="fill:#e8e8e8"/><path d="M141.7,147.2c-.5-.3-.5-.9-.1-1.4a.8.8,0,0,1,1.2.1c.8.8-.3,1.8-1.1,1.3s-.3.1-.2.2a1.4,1.4,0,0,0,1.6-.2,1.2,1.2,0,0,0-1.7-1.6,1.1,1.1,0,0,0,.1,1.8C141.6,147.6,141.8,147.4,141.7,147.2Z" transform="translate(-98.1 -78.6)" style="fill:#e8e8e8"/><path d="M181.5,120.8a10,10,0,0,1,2.3-3.1c.1-.2-.1-.4-.2-.2a10.4,10.4,0,0,0-2.3,3.2C181.2,120.8,181.5,121,181.5,120.8Z" transform="translate(-98.1 -78.6)" style="fill:#e8e8e8"/><path d="M182.7,120.6l1.9-1.9c.1-.1-.1-.3-.2-.2a17,17,0,0,0-1.9,1.9C182.4,120.6,182.6,120.8,182.7,120.6Z" transform="translate(-98.1 -78.6)" style="fill:#e8e8e8"/><path d="M183.4,121.5l.8-.7c.1-.1-.1-.3-.2-.2l-.8.7C183.1,121.4,183.3,121.6,183.4,121.5Z" transform="translate(-98.1 -78.6)" style="fill:#e8e8e8"/></g><g style="mask:url(#mask-2)"><path d="M200.2,156.8h-.8a.3.3,0,0,0-.3.3v10.1a.3.3,0,0,0,.3.3h.8c.1,0,.2-.1.2-.3V157.1C200.4,156.9,200.3,156.8,200.2,156.8Z" transform="translate(-98.1 -78.6)" style="fill:#ededed"/><path d="M195.3,136.8H161.1a4.7,4.7,0,0,0-4.6,4.6v79a4.7,4.7,0,0,0,4.6,4.6h34.2a4.6,4.6,0,0,0,4.5-4.6v-79A4.6,4.6,0,0,0,195.3,136.8Z" transform="translate(-98.1 -78.6)" style="fill:#f4f4f4"/><path d="M193.6,139.4h-5v.6a3.6,3.6,0,0,1-.2,1.1l-.6.9-.9.7-1.1.2H170l-1.1-.2a4.6,4.6,0,0,1-1.6-1.6,3.6,3.6,0,0,1-.2-1.1v-.6h-4.6a3.4,3.4,0,0,0-3.5,3.5v76.7a3.4,3.4,0,0,0,3.5,3.4h31.1a3.4,3.4,0,0,0,3.4-3.4V142.9a3.2,3.2,0,0,0-1-2.5,4.1,4.1,0,0,0-1.1-.7,3.1,3.1,0,0,0-1.3-.3Z" transform="translate(-98.1 -78.6)" style="fill:#fff"/><path d="M179.6,139.4h-5.1a.5.5,0,0,0-.5.5v.3a.5.5,0,0,0,.5.5h5.1a.5.5,0,0,0,.5-.5v-.3A.6.6,0,0,0,179.6,139.4Z" transform="translate(-98.1 -78.6)" style="fill:#fefefe"/><path d="M181.7,140.8a.8.8,0,0,0,.7-.7.8.8,0,0,0-.7-.7.7.7,0,0,0-.7.7A.8.8,0,0,0,181.7,140.8Z" transform="translate(-98.1 -78.6)" style="fill:#fefefe"/><path d="M178.4,190.2a8.2,8.2,0,1,0-8.2-8.2A8.2,8.2,0,0,0,178.4,190.2Z" transform="translate(-98.1 -78.6)" style="fill:#fff"/><path d="M189.2,162.9a11.1,11.1,0,0,1-1.8,6.1,10.7,10.7,0,0,1-4.9,4,11.6,11.6,0,0,1-6.4.6,10.6,10.6,0,0,1-5.6-3,11,11,0,0,1-3-5.6,11.3,11.3,0,0,1,.6-6.3,11.8,11.8,0,0,1,4.1-5,10.9,10.9,0,0,1,6.1-1.8,12.5,12.5,0,0,1,4.2.8,12.1,12.1,0,0,1,3.5,2.4,11.3,11.3,0,0,1,2.4,3.6A11.6,11.6,0,0,1,189.2,162.9ZM177,168.7l8.1-8.2.2-.2v-.5c0-.1-.1-.2-.2-.3l-1-1h-1l-6.6,6.7-3.1-3.1c-.1-.2-.3-.2-.5-.2s-.4,0-.5.2l-1,1a.8.8,0,0,0-.2.5c0,.2.1.3.2.5l4.6,4.6h1Z" transform="translate(-98.1 -78.6)" style="fill:#865439"/></g></svg>